<svg width="25" height="25" viewBox="0 0 25 25" fill="none" xmlns="http://www.w3.org/2000/svg">
<path d="M22.1131 20.4731C23.3963 18.9305 24.2887 17.1018 24.715 15.1416C25.1412 13.1815 25.0887 11.1477 24.5619 9.21212C24.0351 7.27657 23.0495 5.49628 21.6884 4.02183C20.3273 2.54739 18.6309 1.42218 16.7426 0.741387C14.8542 0.060593 12.8296 -0.155755 10.8399 0.110645C8.85014 0.377046 6.95391 1.11836 5.31158 2.27187C3.66924 3.42538 2.32912 4.95715 1.40457 6.73761C0.480019 8.51807 -0.00175357 10.4948 4.79597e-06 12.5007C0.00067954 15.4166 1.02908 18.2392 2.90476 20.4731L2.88689 20.4882C2.94943 20.5632 3.02091 20.6275 3.08524 20.7016C3.16566 20.7936 3.25233 20.8802 3.33542 20.9694C3.5856 21.2408 3.84293 21.5015 4.11276 21.7461C4.19497 21.8211 4.27985 21.8908 4.36294 21.9622C4.64886 22.2086 4.94282 22.4425 5.2475 22.6603C5.28682 22.6871 5.32256 22.7219 5.36187 22.7496V22.7389C7.45453 24.2103 9.95095 25 12.5098 25C15.0687 25 17.5651 24.2103 19.6578 22.7389V22.7496C19.6971 22.7219 19.732 22.6871 19.7722 22.6603C20.076 22.4416 20.3708 22.2086 20.6567 21.9622C20.7398 21.8908 20.8247 21.8202 20.9069 21.7461C21.1767 21.5006 21.4341 21.2408 21.6842 20.9694C21.7673 20.8802 21.8531 20.7936 21.9344 20.7016C21.9979 20.6275 22.0702 20.5632 22.1328 20.4873L22.1131 20.4731ZM12.5089 5.35859C13.3042 5.35859 14.0815 5.59421 14.7427 6.03565C15.4039 6.47709 15.9193 7.10452 16.2236 7.83861C16.5279 8.5727 16.6076 9.38048 16.4524 10.1598C16.2973 10.9391 15.9143 11.6549 15.352 12.2168C14.7897 12.7786 14.0733 13.1612 13.2933 13.3163C12.5134 13.4713 11.705 13.3917 10.9703 13.0876C10.2356 12.7836 9.60763 12.2686 9.16583 11.608C8.72402 10.9473 8.48821 10.1706 8.48821 9.37602C8.48821 8.31053 8.91182 7.28868 9.66586 6.53527C10.4199 5.78185 11.4426 5.35859 12.5089 5.35859ZM5.36723 20.4731C5.38273 19.3008 5.8595 18.1818 6.69439 17.3581C7.52928 16.5345 8.65516 16.0723 9.82845 16.0717H15.1894C16.3627 16.0723 17.4886 16.5345 18.3235 17.3581C19.1584 18.1818 19.6351 19.3008 19.6506 20.4731C17.6911 22.2374 15.1468 23.2139 12.5089 23.2139C9.87111 23.2139 7.32681 22.2374 5.36723 20.4731Z" fill="#2255CE"/>
</svg>
