<svg width="50" height="49" viewBox="0 0 50 49" fill="none" xmlns="http://www.w3.org/2000/svg">
<path d="M3.08208 27.0249C-0.251934 23.1065 0.137337 19.7968 0.237337 19.2192C-1.79469 28.4556 10.0859 34.7478 3.15197 42.7496C2.85124 43.0999 2.53432 43.4287 2.20916 43.7518L16.086 43.7412C16.8411 37.3679 4.93531 29.1991 3.08208 27.0249Z" fill="#E92C2D"/>
<path d="M26.7003 1.22266C26.7003 1.22266 14.61 4.14625 11.3986 10.3854C11.3986 10.3854 9.12692 15.0211 13.3827 16.2849C13.3827 16.2849 9.31223 7.70792 26.7003 1.22266Z" fill="#E92C2D"/>
<path d="M12.2769 29.6811C12.2769 29.6811 25.3288 35.5571 27.8371 43.739H50.0005C46.3437 27.2902 10.0841 23.6057 8.59822 15.2528C7.22462 7.53974 19.927 1.72203 29.6009 0C19.3507 1.15755 12.52 4.54745 9.58817 6.29057C7.69598 7.45636 5.80218 8.73734 4.17009 10.4028C-6.88069 21.6923 12.2769 29.6811 12.2769 29.6811Z" fill="#234D9C"/>
<path d="M18.8946 13.7274C18.8946 13.3765 19.0653 13.1172 19.4307 13.1172H21.1319C21.4604 13.1172 21.6191 13.3552 21.6191 13.6007C21.6191 13.8395 21.4532 14.0842 21.1319 14.0842H19.9235V15.1066H21.0494C21.3843 15.1066 21.5494 15.3455 21.5494 15.5901C21.5494 15.8272 21.3771 16.0727 21.0494 16.0727H19.9235V17.137H21.1928C21.5221 17.137 21.68 17.3751 21.68 17.6212C21.68 17.8593 21.5157 18.1047 21.1928 18.1047H19.4234C19.1205 18.1047 18.8945 17.8937 18.8945 17.5795V13.7274H18.8946Z" fill="#231F20"/>
<path d="M23.2635 15.438L22.1521 13.8969C22.0831 13.8053 22.0422 13.7014 22.0422 13.5893C22.0422 13.2809 22.2691 13.0781 22.5647 13.0781C22.7354 13.0781 22.9126 13.1967 23.0103 13.3374L23.8605 14.5694L24.7115 13.3374C24.8068 13.1967 24.9847 13.0781 25.1563 13.0781C25.4519 13.0781 25.6795 13.2809 25.6795 13.5893C25.6795 13.7014 25.6371 13.8053 25.5681 13.8969L24.4575 15.438L25.8158 17.3007C25.8703 17.3776 25.9328 17.5109 25.9328 17.6572C25.9328 17.9519 25.7116 18.1481 25.411 18.1481C25.2259 18.1481 25.0872 18.0639 24.9847 17.9166L23.8605 16.3207L22.7354 17.9166C22.632 18.0639 22.4958 18.1481 22.3099 18.1481C22.0086 18.1481 21.7891 17.9518 21.7891 17.6572C21.7891 17.5109 21.85 17.3775 21.9053 17.3007L23.2635 15.438Z" fill="#231F20"/>
<path d="M27.4771 16.1576H28.7801L28.1432 14.1272H28.1287L27.4771 16.1576ZM27.4018 13.6159C27.5188 13.2945 27.7849 13.0352 28.1359 13.0352C28.4989 13.0352 28.7537 13.2797 28.869 13.6159L30.2145 17.4263C30.2562 17.5375 30.269 17.6366 30.269 17.6848C30.269 17.9589 30.0502 18.1478 29.7963 18.1478C29.5077 18.1478 29.3643 17.9923 29.2946 17.7829L29.0895 17.1253H27.1814L26.9763 17.7764C26.9075 17.9923 26.764 18.1478 26.4835 18.1478C26.207 18.1478 25.9746 17.9376 25.9746 17.657C25.9746 17.5448 26.0091 17.4615 26.0227 17.4263L27.4018 13.6159Z" fill="#231F20"/>
<path d="M30.7835 14.0841H30.0367C29.7082 14.0841 29.5703 13.8396 29.5703 13.6007C29.5703 13.3553 29.741 13.1172 30.0367 13.1172H32.5617C32.8557 13.1172 33.028 13.3553 33.028 13.6007C33.028 13.8396 32.8902 14.0841 32.5617 14.0841H31.8124V17.6008C31.8124 17.9493 31.5944 18.1465 31.2988 18.1465C31.0039 18.1465 30.7835 17.9493 30.7835 17.6008L30.7835 14.0841Z" fill="#231F20"/>
<path d="M5.46172 48.6476V46.7789C5.46172 46.7164 5.44396 46.6664 5.40859 46.6289C5.37312 46.5913 5.32938 46.5611 5.27734 46.5382C5.22521 46.5154 5.16688 46.4998 5.10234 46.4914C5.03771 46.4831 4.97422 46.4789 4.91172 46.4789C4.85333 46.4789 4.79193 46.4831 4.72734 46.4914C4.66271 46.4998 4.60333 46.5154 4.54922 46.5382C4.495 46.5611 4.4513 46.5924 4.41797 46.632C4.38458 46.6717 4.36797 46.7206 4.36797 46.7789V46.8976H4.60547V47.0851H4.48672C4.45328 47.0851 4.42516 47.0976 4.40234 47.1226C4.37937 47.1476 4.36797 47.1768 4.36797 47.2102V48.6477H4.13672V47.2602C4.13672 47.1726 4.15958 47.106 4.20547 47.0601C4.22625 47.0394 4.25125 47.0226 4.28047 47.0101H4.13672V46.7789C4.13672 46.6789 4.15958 46.5967 4.20547 46.532C4.25125 46.4675 4.31172 46.4175 4.38672 46.382C4.46172 46.3467 4.54505 46.3217 4.63672 46.307C4.72833 46.2925 4.82 46.2852 4.91172 46.2852C5.00333 46.2852 5.09505 46.2925 5.18672 46.307C5.27833 46.3217 5.36172 46.3467 5.43672 46.382C5.51172 46.4175 5.57318 46.4675 5.62109 46.532C5.66896 46.5967 5.69297 46.6789 5.69297 46.7789V48.6477L5.46172 48.6476Z" fill="black"/>
<path d="M7.24883 48.6477V46.7789C7.24883 46.7164 7.23419 46.6654 7.20508 46.6258C7.17586 46.5863 7.13836 46.555 7.09258 46.532C7.04669 46.5092 6.99669 46.4925 6.94258 46.482C6.88836 46.4717 6.83414 46.4664 6.78008 46.4664C6.72586 46.4664 6.6707 46.4717 6.61445 46.482C6.5582 46.4925 6.50607 46.5092 6.4582 46.532C6.41029 46.555 6.37169 46.5863 6.34258 46.6258C6.31336 46.6655 6.29883 46.7164 6.29883 46.7789H6.08008C6.08008 46.6789 6.09982 46.5967 6.13945 46.532C6.17898 46.4675 6.23107 46.4175 6.2957 46.382C6.36023 46.3467 6.43419 46.3217 6.51758 46.307C6.60091 46.2925 6.68836 46.2852 6.78008 46.2852C6.87169 46.2852 6.95919 46.2925 7.04258 46.307C7.12591 46.3217 7.19982 46.3467 7.26445 46.382C7.32904 46.4175 7.38107 46.4675 7.4207 46.532C7.46029 46.5967 7.48008 46.6789 7.48008 46.7789V48.6477H7.24883Z" fill="black"/>
<path d="M9.4625 46.5164C9.33333 46.5289 9.23125 46.5341 9.15625 46.532C9.08125 46.5299 9.01349 46.5257 8.95312 46.5195C8.89266 46.5132 8.82812 46.506 8.75937 46.4976C8.69062 46.4893 8.6 46.4852 8.4875 46.4852C8.40411 46.4852 8.34161 46.5039 8.3 46.5414C8.25828 46.5789 8.23125 46.6268 8.21875 46.6852C8.20625 46.7227 8.2 46.7581 8.2 46.7914V46.8352L9.1 46.9477C9.19578 46.9601 9.26875 46.9882 9.31875 47.032C9.36875 47.0758 9.39375 47.1456 9.39375 47.2414V48.3164C9.39375 48.4206 9.35937 48.5061 9.29062 48.5727C9.22187 48.6394 9.13953 48.6727 9.04375 48.6727C8.94786 48.6727 8.86562 48.6373 8.79687 48.5665C8.72812 48.4957 8.69375 48.4123 8.69375 48.3164C8.69375 48.2206 8.72812 48.1383 8.79687 48.0696C8.86562 48.0008 8.94781 47.9665 9.04375 47.9665C9.05203 47.9665 9.07708 47.9707 9.11875 47.979L9.15625 47.9915V47.2415C9.15625 47.1957 9.1375 47.1686 9.1 47.1602L7.96875 47.0164C7.96875 46.9998 7.96875 46.9831 7.96875 46.9664C7.96875 46.9498 7.97083 46.931 7.975 46.9102C7.97911 46.8769 7.98224 46.8404 7.98437 46.8008C7.98641 46.7612 7.99161 46.7185 8 46.6727C8.02078 46.5519 8.07391 46.457 8.15937 46.3883C8.24474 46.3195 8.3625 46.2852 8.5125 46.2852C8.65 46.2852 8.75312 46.2894 8.82187 46.2977C8.89062 46.306 8.95 46.3133 9 46.3195C9.05 46.3258 9.10203 46.329 9.15625 46.329C9.21036 46.329 9.29161 46.3227 9.4 46.3102L9.4625 46.5164ZM9.21875 48.3164C9.21875 48.2706 9.20099 48.231 9.16562 48.1977C9.13016 48.1643 9.08958 48.1477 9.04375 48.1477C8.99375 48.1477 8.95203 48.1643 8.91875 48.1977C8.88536 48.231 8.86875 48.2706 8.86875 48.3164C8.86875 48.3664 8.88536 48.4091 8.91875 48.4445C8.95203 48.4799 8.99375 48.4977 9.04375 48.4977C9.08953 48.4977 9.13016 48.4799 9.16562 48.4445C9.20099 48.4091 9.21875 48.3664 9.21875 48.3164Z" fill="black"/>
<path d="M11.4938 48.6492V46.568C11.4938 46.5264 11.4729 46.5055 11.4312 46.5055H11.3375C11.3083 46.5055 11.2916 46.5201 11.2875 46.5492L10.4813 48.6492H10.25V46.9555C10.2333 46.9639 10.2188 46.9701 10.2063 46.9742C10.1813 46.9867 10.1563 46.9929 10.1313 46.9929C10.0354 46.9929 9.95312 46.9585 9.88437 46.8898C9.81562 46.8211 9.78125 46.7389 9.78125 46.643C9.78125 46.5471 9.81562 46.4648 9.88437 46.3961C9.95312 46.3273 10.0354 46.293 10.1313 46.293C10.227 46.293 10.3094 46.3253 10.3781 46.3898C10.4469 46.4545 10.4813 46.5389 10.4813 46.643V48.0492L11.0687 46.4867C11.0853 46.4451 11.1114 46.4054 11.1469 46.368C11.1822 46.3305 11.2312 46.3117 11.2937 46.3117H11.4938C11.5563 46.3117 11.6104 46.3346 11.6562 46.3805C11.702 46.4264 11.725 46.4826 11.725 46.5492V48.6492H11.4938V48.6492ZM10.3063 46.643C10.3063 46.593 10.2885 46.5514 10.2532 46.518C10.2177 46.4847 10.1771 46.468 10.1313 46.468C10.0854 46.468 10.0447 46.4847 10.0094 46.518C9.97396 46.5515 9.9563 46.593 9.9563 46.643C9.9563 46.6889 9.97396 46.7295 10.0094 46.7649C10.0448 46.8004 10.0854 46.818 10.1313 46.818C10.1771 46.818 10.2177 46.8004 10.2532 46.7649C10.2885 46.7295 10.3063 46.6889 10.3063 46.643Z" fill="black"/>
<path d="M13.2859 48.6477V46.7789C13.2859 46.7164 13.2713 46.6654 13.2422 46.6258C13.213 46.5863 13.1755 46.555 13.1297 46.532C13.0838 46.5092 13.0338 46.4925 12.9797 46.482C12.9255 46.4717 12.8713 46.4664 12.8172 46.4664C12.763 46.4664 12.7078 46.4717 12.6516 46.482C12.5953 46.4925 12.5432 46.5092 12.4953 46.532C12.4474 46.555 12.4088 46.5863 12.3797 46.6258C12.3505 46.6655 12.3359 46.7164 12.3359 46.7789H12.1172C12.1172 46.6789 12.1369 46.5967 12.1766 46.532C12.2161 46.4675 12.2682 46.4175 12.3328 46.382C12.3973 46.3467 12.4713 46.3217 12.5547 46.307C12.638 46.2925 12.7255 46.2852 12.8172 46.2852C12.9088 46.2852 12.9963 46.2925 13.0797 46.307C13.163 46.3217 13.2369 46.3467 13.3016 46.382C13.3661 46.4175 13.4182 46.4675 13.4578 46.532C13.4974 46.5967 13.5172 46.6789 13.5172 46.7789V48.6477H13.2859Z" fill="black"/>
<path d="M15.4176 48.3554C15.4176 48.4388 15.3884 48.5085 15.3301 48.5648C15.2717 48.621 15.2029 48.6492 15.1238 48.6492H14.4801L13.9238 46.5929L14.1176 46.4305L14.6551 48.4242H15.1238C15.1613 48.4242 15.1801 48.4055 15.1801 48.3679V46.9555C15.1717 46.9639 15.1592 46.9701 15.1426 46.9742C15.1176 46.9867 15.0926 46.9929 15.0676 46.9929C14.9717 46.9929 14.8895 46.9585 14.8207 46.8898C14.752 46.8211 14.7176 46.7389 14.7176 46.643C14.7176 46.5471 14.752 46.4648 14.8207 46.3961C14.8895 46.3273 14.9717 46.293 15.0676 46.293C15.1634 46.293 15.2457 46.3253 15.3145 46.3898C15.3832 46.4545 15.4176 46.5389 15.4176 46.643V48.3554ZM15.2363 46.6429C15.2363 46.5929 15.2196 46.5513 15.1863 46.5179C15.1529 46.4846 15.1134 46.4679 15.0676 46.4679C15.0176 46.4679 14.9748 46.4846 14.9395 46.5179C14.904 46.5514 14.8863 46.5929 14.8863 46.6429C14.8863 46.6888 14.904 46.7294 14.9395 46.7648C14.9748 46.8003 15.0176 46.8179 15.0676 46.8179C15.1134 46.8179 15.1529 46.8003 15.1863 46.7648C15.2196 46.7294 15.2363 46.6888 15.2363 46.6429Z" fill="black"/>
<path d="M17.6609 48.6493L17.0734 46.8868L16.4922 48.6493H16.2734V46.9555C16.2567 46.9639 16.2422 46.9702 16.2297 46.9742C16.2047 46.9867 16.1797 46.993 16.1547 46.993C16.0588 46.993 15.9766 46.9586 15.9078 46.8898C15.8391 46.8211 15.8047 46.7389 15.8047 46.643C15.8047 46.543 15.8391 46.4597 15.9078 46.393C15.9766 46.3264 16.0588 46.293 16.1547 46.293C16.2505 46.293 16.3328 46.3253 16.4016 46.3898C16.4703 46.4545 16.5047 46.5389 16.5047 46.643V48.0242L17.0734 46.3117L17.6484 48.0242V46.3117H17.8797V48.6492H17.6609V48.6493ZM16.3297 46.6431C16.3297 46.593 16.3119 46.5515 16.2766 46.5181C16.2411 46.4847 16.2005 46.4681 16.1547 46.4681C16.1047 46.4681 16.063 46.4847 16.0297 46.5181C15.9963 46.5515 15.9797 46.593 15.9797 46.6431C15.9797 46.689 15.9963 46.7296 16.0297 46.7649C16.063 46.8004 16.1047 46.8181 16.1547 46.8181C16.2005 46.8181 16.2411 46.8004 16.2766 46.7649C16.3119 46.7296 16.3297 46.689 16.3297 46.6431Z" fill="black"/>
<path d="M16.3926 45.9852V45.7914C16.3926 45.7123 16.4145 45.6405 16.4582 45.5757C16.502 45.5112 16.5593 45.4581 16.6301 45.4164C16.701 45.3747 16.7801 45.3424 16.8676 45.3195C16.9551 45.2967 17.0447 45.2852 17.1363 45.2852C17.228 45.2852 17.3176 45.2967 17.4051 45.3195C17.4926 45.3424 17.5718 45.3748 17.6426 45.4164C17.7135 45.4581 17.7707 45.5111 17.8145 45.5757C17.8582 45.6404 17.8801 45.7123 17.8801 45.7914V45.9852H16.3926ZM17.6863 45.804C17.6863 45.7415 17.6697 45.6894 17.6363 45.6477C17.603 45.6061 17.5593 45.5717 17.5051 45.5446C17.451 45.5175 17.3916 45.4977 17.327 45.4852C17.2624 45.4727 17.1988 45.4665 17.1363 45.4665C17.0738 45.4665 17.0093 45.4727 16.9426 45.4852C16.876 45.4977 16.8166 45.5175 16.7645 45.5446C16.7124 45.5717 16.6697 45.6061 16.6363 45.6477C16.603 45.6894 16.5863 45.7415 16.5863 45.804H17.6863Z" fill="black"/>
<path d="M19.2234 48.3187C19.2234 48.4147 19.1891 48.498 19.1203 48.5688C19.0516 48.6396 18.9693 48.6751 18.8734 48.6751C18.7776 48.6751 18.6953 48.6417 18.6266 48.575C18.5578 48.5084 18.5234 48.423 18.5234 48.3187V46.3125H18.7609V48.0062L18.7984 47.9876C18.8109 47.9834 18.8234 47.9793 18.8359 47.975C18.8484 47.9709 18.8609 47.9688 18.8734 47.9688C18.9692 47.9688 19.0516 48.0032 19.1203 48.0719C19.1891 48.1406 19.2234 48.223 19.2234 48.3187ZM19.0484 48.3187C19.0484 48.273 19.0317 48.2334 18.9984 48.2001C18.9651 48.1667 18.9234 48.1501 18.8734 48.1501C18.8276 48.1501 18.7869 48.1667 18.7516 48.2001C18.7161 48.2334 18.6984 48.273 18.6984 48.3187C18.6984 48.3687 18.7161 48.4115 18.7516 48.4469C18.7869 48.4823 18.8276 48.5001 18.8734 48.5001C18.9234 48.5001 18.9651 48.4823 18.9984 48.4469C19.0317 48.4115 19.0484 48.3687 19.0484 48.3187Z" fill="black"/>
<path d="M21.3797 46.0235C21.388 46.107 21.3848 46.1767 21.3703 46.233C21.3557 46.2892 21.338 46.334 21.3172 46.3673C21.2922 46.4132 21.2588 46.4445 21.2172 46.4611C21.2463 46.482 21.2713 46.507 21.2922 46.5361C21.313 46.561 21.3307 46.5934 21.3453 46.6329C21.3598 46.6726 21.3672 46.7215 21.3672 46.7798V48.6485H21.1359V46.7798C21.1359 46.7173 21.1172 46.6673 21.0797 46.6298C21.0422 46.5922 20.9932 46.5621 20.9328 46.5392C20.8723 46.5164 20.8078 46.5007 20.7391 46.4923C20.6703 46.484 20.6047 46.4798 20.5422 46.4798C20.4797 46.4798 20.413 46.484 20.3422 46.4923C20.2713 46.5007 20.2056 46.5164 20.1453 46.5392C20.0848 46.5621 20.0359 46.5923 19.9984 46.6298C19.9609 46.6673 19.9422 46.7173 19.9422 46.7798V48.261L20.2359 47.2485C20.2567 47.1819 20.2963 47.1257 20.3547 47.0798C20.413 47.034 20.4817 47.011 20.5609 47.011C20.6567 47.011 20.7401 47.0454 20.8109 47.1142C20.8817 47.1829 20.9172 47.2652 20.9172 47.361C20.9172 47.4569 20.8817 47.5392 20.8109 47.6079C20.7401 47.6766 20.6567 47.711 20.5609 47.711C20.4609 47.711 20.3776 47.6735 20.3109 47.5985L19.9984 48.6485H19.7109V46.7797C19.7109 46.6881 19.7369 46.61 19.7891 46.5454C19.8411 46.4808 19.9078 46.4297 19.9891 46.3922C20.0703 46.3547 20.1598 46.3277 20.2578 46.311C20.3557 46.2944 20.4505 46.286 20.5422 46.286C20.6255 46.286 20.6973 46.2913 20.7578 46.3017C20.8182 46.3121 20.8692 46.3215 20.9109 46.3298C20.9317 46.3382 20.9526 46.3444 20.9734 46.3485C20.9942 46.3527 21.013 46.359 21.0297 46.3672C21.063 46.3465 21.0901 46.3194 21.1109 46.2859C21.1317 46.2568 21.1474 46.2214 21.1578 46.1797C21.1682 46.1381 21.1672 46.0859 21.1547 46.0234H21.3797V46.0235ZM20.736 47.3611C20.736 47.3153 20.7193 47.2757 20.686 47.2423C20.6526 47.209 20.611 47.1923 20.561 47.1923C20.5151 47.1923 20.4745 47.209 20.4391 47.2423C20.4036 47.2758 20.386 47.3153 20.386 47.3611C20.386 47.4111 20.4036 47.4539 20.4391 47.4892C20.4745 47.5247 20.5151 47.5423 20.561 47.5423C20.611 47.5423 20.6526 47.5247 20.686 47.4892C20.7193 47.4539 20.736 47.4111 20.736 47.3611Z" fill="black"/>
<path d="M24.0992 47.0992C24.0908 47.1826 24.0648 47.2565 24.0211 47.321C23.9773 47.3857 23.9305 47.4409 23.8805 47.4867C23.8262 47.5326 23.7596 47.5764 23.6805 47.618V48.3555C23.6805 48.4389 23.6512 48.5085 23.593 48.5648C23.5345 48.6211 23.4658 48.6492 23.3867 48.6492H22.518C22.4387 48.6492 22.3711 48.6211 22.3148 48.5648C22.2586 48.5086 22.2305 48.4389 22.2305 48.3555V46.9555C22.2137 46.9639 22.1992 46.9701 22.1867 46.9742C22.1617 46.9867 22.1367 46.9929 22.1117 46.9929C22.0158 46.9929 21.9336 46.9585 21.8648 46.8898C21.7961 46.8211 21.7617 46.7389 21.7617 46.643C21.7617 46.5471 21.7961 46.4648 21.8648 46.3961C21.9336 46.3273 22.0158 46.293 22.1117 46.293C22.2075 46.293 22.2898 46.3253 22.3586 46.3898C22.4273 46.4545 22.4617 46.5389 22.4617 46.643V48.3679C22.4617 48.4055 22.4805 48.4242 22.518 48.4242H23.3867C23.3992 48.4242 23.4117 48.4201 23.4242 48.4117C23.4367 48.4034 23.443 48.3889 23.443 48.3679V47.6805L23.368 47.6992C23.343 47.7034 23.3148 47.7065 23.2836 47.7086C23.2523 47.7107 23.2158 47.7117 23.1742 47.7117C23.1158 47.7117 23.0565 47.7055 22.9961 47.693C22.9356 47.6805 22.8805 47.6608 22.8305 47.6336C22.7805 47.6065 22.7387 47.568 22.7055 47.518C22.672 47.468 22.6555 47.4055 22.6555 47.3304C22.6555 47.2346 22.6856 47.1596 22.7461 47.1055C22.8065 47.0514 22.8846 47.0242 22.9805 47.0242C23.0762 47.0242 23.1544 47.0492 23.2148 47.0992C23.2752 47.1492 23.3055 47.2221 23.3055 47.3179C23.3055 47.3513 23.3002 47.3826 23.2898 47.4117C23.2794 47.4409 23.268 47.4658 23.2555 47.4866C23.247 47.4991 23.2398 47.5116 23.2336 47.5242C23.2273 47.5366 23.2201 47.5471 23.2117 47.5554C23.2283 47.5513 23.2492 47.5492 23.2742 47.5492C23.2908 47.5492 23.3075 47.5492 23.3242 47.5492C23.3408 47.5492 23.3555 47.5471 23.368 47.5429C23.3763 47.5389 23.3846 47.5357 23.393 47.5335C23.4013 47.5315 23.4096 47.5283 23.418 47.5242L23.443 47.5117V46.3117H23.6805V47.4179C23.7138 47.4013 23.7492 47.3741 23.7867 47.3366C23.8158 47.3075 23.8408 47.2741 23.8617 47.2366C23.8825 47.1991 23.8951 47.1533 23.8992 47.0991L24.0992 47.0992ZM22.2867 46.6429C22.2867 46.5929 22.269 46.5513 22.2336 46.5179C22.1981 46.4846 22.1575 46.4679 22.1117 46.4679C22.0658 46.4679 22.0252 46.4846 21.9898 46.5179C21.9544 46.5514 21.9367 46.5929 21.9367 46.6429C21.9367 46.6888 21.9544 46.7294 21.9898 46.7648C22.0252 46.8003 22.0658 46.8179 22.1117 46.8179C22.1575 46.8179 22.1981 46.8003 22.2336 46.7648C22.2689 46.7294 22.2867 46.6888 22.2867 46.6429ZM23.1492 47.3304C23.1492 47.2846 23.1325 47.245 23.0992 47.2117C23.0658 47.1783 23.0262 47.1617 22.9805 47.1617C22.9305 47.1617 22.8898 47.1783 22.8586 47.2117C22.8273 47.2451 22.8117 47.2846 22.8117 47.3304C22.8117 47.3804 22.8273 47.421 22.8586 47.4522C22.8898 47.4835 22.9305 47.4991 22.9805 47.4991C23.0262 47.4991 23.0658 47.4835 23.0992 47.4522C23.1325 47.421 23.1492 47.3804 23.1492 47.3304Z" fill="black"/>
<path d="M25.1063 48.3187C25.1063 48.4147 25.0719 48.498 25.0031 48.5688C24.9344 48.6396 24.8521 48.6751 24.7563 48.6751C24.6604 48.6751 24.5781 48.6417 24.5094 48.575C24.4406 48.5084 24.4062 48.423 24.4062 48.3187V46.3125H24.6437V48.0062L24.6812 47.9876C24.6937 47.9834 24.7062 47.9793 24.7188 47.975C24.7312 47.9709 24.7438 47.9688 24.7563 47.9688C24.852 47.9688 24.9344 48.0032 25.0031 48.0719C25.0719 48.1406 25.1063 48.223 25.1063 48.3187ZM24.9313 48.3187C24.9313 48.273 24.9146 48.2334 24.8813 48.2001C24.8479 48.1667 24.8063 48.1501 24.7563 48.1501C24.7104 48.1501 24.6697 48.1667 24.6344 48.2001C24.599 48.2334 24.5813 48.273 24.5813 48.3187C24.5813 48.3687 24.599 48.4115 24.6344 48.4469C24.6698 48.4823 24.7104 48.5001 24.7563 48.5001C24.8063 48.5001 24.8479 48.4823 24.8813 48.4469C24.9146 48.4115 24.9313 48.3687 24.9313 48.3187ZM26.0688 48.3187C26.0688 48.4147 26.0344 48.498 25.9657 48.5688C25.8969 48.6396 25.8146 48.6751 25.7188 48.6751C25.6229 48.6751 25.5407 48.6417 25.4719 48.575C25.4032 48.5084 25.3689 48.423 25.3689 48.3187V46.3125H25.6064V48.0062L25.6439 47.9876C25.6564 47.9834 25.6689 47.9793 25.6814 47.975C25.6939 47.9709 25.7064 47.9688 25.7189 47.9688C25.8147 47.9688 25.897 48.0032 25.9658 48.0719C26.0344 48.1406 26.0688 48.223 26.0688 48.3187ZM25.8938 48.3187C25.8938 48.273 25.8771 48.2334 25.8438 48.2001C25.8104 48.1667 25.7689 48.1501 25.7188 48.1501C25.6729 48.1501 25.6323 48.1667 25.5969 48.2001C25.5615 48.2334 25.5438 48.273 25.5438 48.3187C25.5438 48.3687 25.5615 48.4115 25.5969 48.4469C25.6323 48.4823 25.6729 48.5001 25.7188 48.5001C25.7689 48.5001 25.8105 48.4823 25.8438 48.4469C25.877 48.4115 25.8938 48.3687 25.8938 48.3187Z" fill="black"/>
<path d="M28.1046 48.6493V47.1556C28.1046 47.0848 28.0796 47.039 28.0296 47.018C28.0088 47.0056 27.9859 47.0015 27.9609 47.0056C27.9025 47.0056 27.8609 47.0108 27.8359 47.0212C27.811 47.0316 27.7838 47.0722 27.7547 47.1431L27.0984 48.6493H26.8671V46.9556C26.8505 46.964 26.8359 46.9702 26.8234 46.9743C26.7984 46.9868 26.7734 46.993 26.7484 46.993C26.6525 46.993 26.5703 46.9586 26.5016 46.8899C26.4328 46.8212 26.3984 46.739 26.3984 46.6431C26.3984 46.543 26.4328 46.4597 26.5016 46.393C26.5703 46.3265 26.6525 46.293 26.7484 46.293C26.8443 46.293 26.9266 46.3254 26.9953 46.3899C27.064 46.4545 27.0984 46.5389 27.0984 46.643V48.1305L27.5984 46.9993C27.6192 46.9577 27.6431 46.9305 27.6703 46.918C27.6973 46.9055 27.7255 46.8993 27.7547 46.8993C27.7297 46.8827 27.7088 46.8617 27.6921 46.8368C27.6755 46.816 27.6619 46.7899 27.6516 46.7586C27.6411 46.7273 27.6359 46.6889 27.6359 46.643C27.6359 46.543 27.6703 46.4597 27.739 46.393C27.8078 46.3264 27.8899 46.293 27.9859 46.293C28.0817 46.293 28.164 46.3264 28.2328 46.393C28.3015 46.4597 28.3359 46.543 28.3359 46.643C28.3359 46.7472 28.2942 46.8347 28.2109 46.9055C28.2316 46.918 28.2525 46.9368 28.2733 46.9617C28.2899 46.9826 28.3046 47.0107 28.3171 47.0461C28.3296 47.0816 28.3359 47.1222 28.3359 47.168V48.6492H28.1046V48.6493ZM26.9233 46.6431C26.9233 46.5931 26.9056 46.5515 26.8702 46.5181C26.8347 46.4848 26.7941 46.4681 26.7483 46.4681C26.6983 46.4681 26.6566 46.4848 26.6233 46.5181C26.5899 46.5516 26.5733 46.5931 26.5733 46.6431C26.5733 46.689 26.5899 46.7296 26.6233 46.765C26.6567 46.8005 26.6983 46.8181 26.7483 46.8181C26.7941 46.8181 26.8347 46.8005 26.8702 46.765C26.9056 46.7296 26.9233 46.689 26.9233 46.6431ZM28.1608 46.6431C28.1608 46.5931 28.1442 46.5515 28.1109 46.5181C28.0774 46.4848 28.0359 46.4681 27.9859 46.4681C27.94 46.4681 27.8994 46.4848 27.864 46.5181C27.8285 46.5516 27.8109 46.5931 27.8109 46.6431C27.8109 46.689 27.8285 46.7296 27.864 46.765C27.8994 46.8005 27.94 46.8181 27.9859 46.8181C28.0359 46.8181 28.0775 46.8005 28.1109 46.765C28.1442 46.7296 28.1608 46.689 28.1608 46.6431Z" fill="black"/>
<path d="M28.0996 45.8359V44.8984H28.3309V45.8359H28.0996Z" fill="black"/>
<path d="M30.2301 48.3554C30.2301 48.4388 30.2009 48.5085 30.1426 48.5648C30.0842 48.621 30.0155 48.6492 29.9364 48.6492H29.2926L28.7363 46.5929L28.9301 46.4305L29.4676 48.4242H29.9364C29.9739 48.4242 29.9926 48.4055 29.9926 48.3679V46.9555C29.9842 46.9639 29.9717 46.9701 29.9551 46.9742C29.9301 46.9867 29.9051 46.9929 29.8801 46.9929C29.7842 46.9929 29.702 46.9585 29.6333 46.8898C29.5645 46.8211 29.5301 46.7389 29.5301 46.643C29.5301 46.5471 29.5645 46.4648 29.6333 46.3961C29.702 46.3273 29.7842 46.293 29.8801 46.293C29.976 46.293 30.0583 46.3253 30.127 46.3898C30.1957 46.4545 30.2301 46.5389 30.2301 46.643V48.3554H30.2301ZM30.0489 46.6429C30.0489 46.5929 30.0322 46.5513 29.9988 46.5179C29.9654 46.4846 29.9259 46.4679 29.8801 46.4679C29.8301 46.4679 29.7874 46.4846 29.752 46.5179C29.7165 46.5514 29.6988 46.5929 29.6988 46.6429C29.6988 46.6888 29.7165 46.7294 29.752 46.7648C29.7874 46.8003 29.8301 46.8179 29.8801 46.8179C29.9259 46.8179 29.9655 46.8003 29.9988 46.7648C30.0322 46.7294 30.0489 46.6888 30.0489 46.6429Z" fill="black"/>
<path d="M32.5484 48.3548C32.5484 48.4382 32.5192 48.5079 32.4608 48.5642C32.4024 48.6204 32.3337 48.6485 32.2546 48.6485H31.3734C31.2942 48.6485 31.2265 48.6204 31.1703 48.5642C31.114 48.5079 31.0859 48.4382 31.0859 48.3548V46.9548C31.0692 46.9632 31.0546 46.9694 31.0421 46.9735C31.0172 46.986 30.9921 46.9922 30.9671 46.9922C30.8712 46.9922 30.789 46.9579 30.7203 46.8891C30.6516 46.8204 30.6172 46.7382 30.6172 46.6423C30.6172 46.5422 30.6516 46.459 30.7203 46.3922C30.789 46.3257 30.8712 46.2922 30.9671 46.2922C31.063 46.2922 31.1453 46.3246 31.214 46.3891C31.2828 46.4538 31.3171 46.5381 31.3171 46.6422V48.3672C31.3171 48.4047 31.3358 48.4234 31.3734 48.4234H32.2546C32.2671 48.4234 32.2796 48.4194 32.2921 48.411C32.3046 48.4027 32.3109 48.3881 32.3109 48.3672V45.5234H32.5484V48.3548ZM31.1421 46.6423C31.1421 46.5922 31.1244 46.5507 31.089 46.5173C31.0535 46.484 31.0129 46.4673 30.9671 46.4673C30.9171 46.4673 30.8754 46.484 30.8421 46.5173C30.8087 46.5507 30.7921 46.5922 30.7921 46.6423C30.7921 46.6882 30.8087 46.7288 30.8421 46.7642C30.8755 46.7996 30.9171 46.8173 30.9671 46.8173C31.0129 46.8173 31.0535 46.7996 31.089 46.7642C31.1244 46.7288 31.1421 46.6882 31.1421 46.6423Z" fill="black"/>
<path d="M34.5427 46.5164C34.4135 46.5289 34.3114 46.5341 34.2364 46.532C34.1615 46.5299 34.0937 46.5257 34.0333 46.5195C33.9729 46.5132 33.9083 46.506 33.8396 46.4976C33.7709 46.4893 33.6802 46.4852 33.5677 46.4852C33.4842 46.4852 33.4217 46.5039 33.3802 46.5414C33.3385 46.5789 33.3114 46.6268 33.2989 46.6852C33.2864 46.7227 33.2801 46.7581 33.2801 46.7914V46.8352L34.1801 46.9477C34.276 46.9601 34.3489 46.9882 34.3989 47.032C34.4489 47.0758 34.4739 47.1456 34.4739 47.2414V48.3164C34.4739 48.4206 34.4395 48.5061 34.3708 48.5727C34.302 48.6394 34.2197 48.6727 34.1239 48.6727C34.0279 48.6727 33.9458 48.6373 33.877 48.5665C33.8083 48.4957 33.7739 48.4123 33.7739 48.3164C33.7739 48.2206 33.8083 48.1383 33.877 48.0696C33.9458 48.0008 34.0279 47.9665 34.1239 47.9665C34.1322 47.9665 34.1572 47.9707 34.1988 47.979L34.2364 47.9915V47.2415C34.2364 47.1957 34.2176 47.1686 34.1801 47.1602L33.0488 47.0164C33.0488 46.9998 33.0488 46.9831 33.0488 46.9664C33.0488 46.9498 33.0509 46.931 33.0551 46.9102C33.0592 46.8769 33.0624 46.8404 33.0645 46.8008C33.0665 46.7612 33.0717 46.7185 33.0801 46.6727C33.1009 46.5519 33.154 46.457 33.2395 46.3883C33.3249 46.3195 33.4426 46.2852 33.5926 46.2852C33.7301 46.2852 33.8333 46.2894 33.902 46.2977C33.9708 46.306 34.0301 46.3133 34.0801 46.3195C34.1301 46.3258 34.1822 46.329 34.2364 46.329C34.2905 46.329 34.3717 46.3227 34.4801 46.3102L34.5427 46.5164ZM34.2989 48.3164C34.2989 48.2706 34.2811 48.231 34.2458 48.1977C34.2103 48.1643 34.1697 48.1477 34.1239 48.1477C34.0739 48.1477 34.0322 48.1643 33.9989 48.1977C33.9655 48.231 33.9489 48.2706 33.9489 48.3164C33.9489 48.3664 33.9655 48.4091 33.9989 48.4445C34.0322 48.4799 34.0739 48.4977 34.1239 48.4977C34.1697 48.4977 34.2103 48.4799 34.2458 48.4445C34.2811 48.4091 34.2989 48.3664 34.2989 48.3164Z" fill="black"/>
<path d="M36.2363 46.3126C36.2363 46.4209 36.2144 46.5178 36.1707 46.6032C36.1269 46.6886 36.0685 46.7616 35.9957 46.8219C35.9227 46.8823 35.8373 46.9293 35.7394 46.9625C35.6415 46.9959 35.5384 47.0125 35.43 47.0125H35.3801C35.3591 47.0125 35.3363 47.0136 35.3113 47.0157C35.2863 47.0178 35.2529 47.0168 35.2113 47.0125C35.1154 47.0084 35.0332 46.973 34.9645 46.9062C34.8957 46.8397 34.8613 46.7584 34.8613 46.6625C34.8613 46.5667 34.8957 46.4844 34.9645 46.4156C35.0332 46.3469 35.1154 46.3126 35.2113 46.3126C35.3072 46.3126 35.3895 46.3469 35.4582 46.4156C35.5269 46.4844 35.5613 46.5667 35.5613 46.6625C35.5613 46.7125 35.5509 46.7542 35.53 46.7875C35.5133 46.8124 35.5028 46.8313 35.4987 46.8438C35.5695 46.8438 35.6372 46.8292 35.7018 46.8C35.7664 46.7708 35.8226 46.7323 35.8706 46.6843C35.9184 46.6365 35.957 46.5803 35.9862 46.5156C36.0153 46.451 36.03 46.3834 36.03 46.3125L36.2363 46.3126ZM36.2363 47.95C36.2363 48.0584 36.2144 48.1553 36.1707 48.2406C36.1269 48.3261 36.0685 48.3991 35.9957 48.4594C35.9227 48.5198 35.8373 48.5667 35.7394 48.6C35.6415 48.6334 35.5384 48.65 35.43 48.65H35.3801C35.3591 48.65 35.3363 48.651 35.3113 48.6531C35.2863 48.6552 35.2529 48.6542 35.2113 48.65C35.1154 48.6459 35.0332 48.6104 34.9645 48.5437C34.8957 48.4772 34.8613 48.3959 34.8613 48.3C34.8613 48.2042 34.8957 48.1219 34.9645 48.0531C35.0332 47.9844 35.1154 47.95 35.2113 47.95C35.3072 47.95 35.3895 47.9844 35.4582 48.0531C35.5269 48.1219 35.5613 48.2042 35.5613 48.3C35.5613 48.35 35.5509 48.3917 35.53 48.4249C35.5133 48.4499 35.5028 48.4687 35.4987 48.4812C35.5695 48.4812 35.6372 48.4667 35.7018 48.4374C35.7664 48.4083 35.8226 48.3698 35.8706 48.3218C35.9184 48.274 35.957 48.2177 35.9862 48.1531C36.0153 48.0885 36.03 48.0208 36.03 47.9499H36.2363V47.95ZM35.3863 46.6625C35.3863 46.6167 35.3685 46.5761 35.3332 46.5406C35.2977 46.5053 35.2571 46.4875 35.2113 46.4875C35.1654 46.4875 35.1247 46.5053 35.0894 46.5406C35.0539 46.5761 35.0362 46.6167 35.0362 46.6625C35.0362 46.7125 35.0539 46.7542 35.0894 46.7875C35.1247 46.8209 35.1654 46.8375 35.2113 46.8375C35.2571 46.8375 35.2977 46.8209 35.3332 46.7875C35.3685 46.7542 35.3863 46.7125 35.3863 46.6625ZM35.3863 48.3001C35.3863 48.2501 35.3685 48.2084 35.3332 48.1751C35.2977 48.1417 35.2571 48.1251 35.2113 48.1251C35.1654 48.1251 35.1247 48.1417 35.0894 48.1751C35.0539 48.2085 35.0362 48.2501 35.0362 48.3001C35.0362 48.3459 35.0539 48.3866 35.0894 48.4219C35.1247 48.4574 35.1654 48.4751 35.2113 48.4751C35.2571 48.4751 35.2977 48.4574 35.3332 48.4219C35.3685 48.3866 35.3863 48.3459 35.3863 48.3001Z" fill="black"/>
<path d="M37.5046 48.3187C37.5046 48.4147 37.4703 48.498 37.4015 48.5688C37.3328 48.6396 37.2505 48.6751 37.1546 48.6751C37.0587 48.6751 36.9765 48.6417 36.9078 48.575C36.8391 48.5084 36.8047 48.423 36.8047 48.3187V46.3125H37.0422V48.0062L37.0797 47.9876C37.0922 47.9834 37.1047 47.9793 37.1172 47.975C37.1297 47.9709 37.1422 47.9688 37.1547 47.9688C37.2506 47.9688 37.3329 48.0032 37.4016 48.0719C37.4703 48.1406 37.5046 48.223 37.5046 48.3187ZM37.3296 48.3187C37.3296 48.273 37.3129 48.2334 37.2796 48.2001C37.2462 48.1667 37.2046 48.1501 37.1546 48.1501C37.1087 48.1501 37.0681 48.1667 37.0327 48.2001C36.9972 48.2334 36.9796 48.273 36.9796 48.3187C36.9796 48.3687 36.9972 48.4115 37.0327 48.4469C37.0681 48.4823 37.1087 48.5001 37.1546 48.5001C37.2046 48.5001 37.2462 48.4823 37.2796 48.4469C37.3129 48.4115 37.3296 48.3687 37.3296 48.3187Z" fill="black"/>
<path d="M39.5483 48.6492V46.568C39.5483 46.5264 39.5275 46.5055 39.4858 46.5055H39.392C39.3628 46.5055 39.3461 46.5201 39.3421 46.5492L38.5358 48.6492H38.3046V46.9555C38.2879 46.9639 38.2733 46.9701 38.2609 46.9742C38.2359 46.9867 38.2108 46.9929 38.1859 46.9929C38.09 46.9929 38.0077 46.9585 37.939 46.8898C37.8703 46.8211 37.8359 46.7389 37.8359 46.643C37.8359 46.5471 37.8703 46.4648 37.939 46.3961C38.0077 46.3273 38.09 46.293 38.1859 46.293C38.2817 46.293 38.364 46.3253 38.4327 46.3898C38.5015 46.4545 38.5358 46.5389 38.5358 46.643V48.0492L39.1233 46.4867C39.1399 46.4451 39.166 46.4054 39.2015 46.368C39.2368 46.3305 39.2858 46.3117 39.3483 46.3117H39.5483C39.6108 46.3117 39.6649 46.3346 39.7108 46.3805C39.7566 46.4264 39.7795 46.4826 39.7795 46.5492V48.6492H39.5483V48.6492ZM38.3608 46.643C38.3608 46.593 38.343 46.5514 38.3077 46.518C38.2722 46.4847 38.2316 46.468 38.1858 46.468C38.1398 46.468 38.0993 46.4847 38.0639 46.518C38.0284 46.5515 38.0107 46.593 38.0107 46.643C38.0107 46.6889 38.0284 46.7295 38.0639 46.7649C38.0993 46.8004 38.1398 46.818 38.1858 46.818C38.2316 46.818 38.2722 46.8004 38.3077 46.7649C38.343 46.7295 38.3608 46.6889 38.3608 46.643Z" fill="black"/>
<path d="M41.9988 46.0235C42.0071 46.107 42.004 46.1767 41.9894 46.233C41.9748 46.2892 41.9571 46.334 41.9363 46.3673C41.9113 46.4132 41.8779 46.4445 41.8363 46.4611C41.8654 46.482 41.8903 46.507 41.9112 46.5361C41.932 46.561 41.9497 46.5934 41.9643 46.6329C41.9789 46.6726 41.9862 46.7215 41.9862 46.7798V48.6485H41.755V46.7798C41.755 46.7173 41.7363 46.6673 41.6988 46.6298C41.6613 46.5922 41.6123 46.5621 41.5519 46.5392C41.4915 46.5164 41.427 46.5007 41.3582 46.4923C41.2895 46.484 41.2238 46.4798 41.1613 46.4798C41.0988 46.4798 41.0321 46.484 40.9613 46.4923C40.8904 46.5007 40.8248 46.5164 40.7645 46.5392C40.704 46.5621 40.655 46.5923 40.6176 46.6298C40.58 46.6673 40.5613 46.7173 40.5613 46.7798V48.261L40.8551 47.2485C40.8759 47.1819 40.9154 47.1257 40.9738 47.0798C41.0321 47.034 41.1009 47.011 41.1801 47.011C41.2759 47.011 41.3591 47.0454 41.4301 47.1142C41.5009 47.1829 41.5364 47.2652 41.5364 47.361C41.5364 47.4569 41.5009 47.5392 41.4301 47.6079C41.3592 47.6766 41.2759 47.711 41.1801 47.711C41.0801 47.711 40.9967 47.6735 40.9301 47.5985L40.6176 48.6485H40.3301V46.7797C40.3301 46.6881 40.356 46.61 40.4082 46.5454C40.4602 46.4808 40.5269 46.4297 40.6082 46.3922C40.6895 46.3547 40.779 46.3277 40.877 46.311C40.9748 46.2944 41.0696 46.286 41.1613 46.286C41.2446 46.286 41.3165 46.2913 41.377 46.3017C41.4373 46.3121 41.4884 46.3215 41.53 46.3298C41.5509 46.3382 41.5716 46.3444 41.5925 46.3485C41.6133 46.3527 41.6321 46.359 41.6488 46.3672C41.6821 46.3465 41.7091 46.3194 41.73 46.2859C41.7509 46.2568 41.7665 46.2214 41.7769 46.1797C41.7873 46.1381 41.7863 46.0859 41.7738 46.0234H41.9988V46.0235ZM41.3551 47.3611C41.3551 47.3153 41.3384 47.2757 41.3051 47.2423C41.2716 47.209 41.2301 47.1923 41.1801 47.1923C41.1342 47.1923 41.0936 47.209 41.0582 47.2423C41.0227 47.2758 41.005 47.3153 41.005 47.3611C41.005 47.4111 41.0227 47.4539 41.0582 47.4892C41.0936 47.5247 41.1342 47.5423 41.1801 47.5423C41.2301 47.5423 41.2717 47.5247 41.3051 47.4892C41.3384 47.4539 41.3551 47.4111 41.3551 47.3611Z" fill="black"/>
<path d="M43.4046 48.3164C43.4046 48.4123 43.3703 48.4956 43.3015 48.5665C43.2328 48.6373 43.1505 48.6727 43.0547 48.6727C42.9588 48.6727 42.8766 48.6394 42.8079 48.5727C42.7391 48.5061 42.7047 48.4206 42.7047 48.3164V45.079L42.3047 45.329L41.8984 45.0914L41.9234 44.9227L42.3047 45.1477L42.7047 44.9102C42.7755 44.9102 42.8317 44.9331 42.8734 44.9789C42.9151 45.0248 42.9359 45.0789 42.9359 45.1414V48.0039L42.9734 47.9852C42.9859 47.981 42.9994 47.9769 43.014 47.9727C43.0285 47.9685 43.0422 47.9664 43.0546 47.9664C43.1504 47.9664 43.2328 48.0008 43.3015 48.0695C43.3703 48.1383 43.4046 48.2206 43.4046 48.3164ZM43.2297 48.3164C43.2297 48.2706 43.2119 48.231 43.1765 48.1977C43.141 48.1644 43.1005 48.1477 43.0546 48.1477C43.0087 48.1477 42.9681 48.1644 42.9328 48.1977C42.8973 48.2311 42.8796 48.2706 42.8796 48.3164C42.8796 48.3664 42.8973 48.4092 42.9328 48.4445C42.9681 48.48 43.0087 48.4977 43.0546 48.4977C43.1005 48.4977 43.141 48.48 43.1765 48.4445C43.2119 48.4092 43.2297 48.3664 43.2297 48.3164Z" fill="black"/>
<path d="M45.3609 48.6492V46.568C45.3609 46.5264 45.34 46.5055 45.2984 46.5055H45.2046C45.1754 46.5055 45.1587 46.5201 45.1546 46.5492L44.3484 48.6492H44.1171V46.9555C44.1005 46.9639 44.0859 46.9701 44.0734 46.9742C44.0484 46.9867 44.0234 46.9929 43.9984 46.9929C43.9025 46.9929 43.8203 46.9585 43.7516 46.8898C43.6828 46.8211 43.6484 46.7389 43.6484 46.643C43.6484 46.5471 43.6828 46.4648 43.7516 46.3961C43.8203 46.3273 43.9025 46.293 43.9984 46.293C44.0942 46.293 44.1766 46.3253 44.2453 46.3898C44.314 46.4545 44.3484 46.5389 44.3484 46.643V48.0492L44.9359 46.4867C44.9524 46.4451 44.9785 46.4054 45.014 46.368C45.0494 46.3305 45.0984 46.3117 45.1608 46.3117H45.3609C45.4233 46.3117 45.4774 46.3346 45.5233 46.3805C45.5692 46.4264 45.5921 46.4826 45.5921 46.5492V48.6492H45.3609V48.6492ZM44.1733 46.643C44.1733 46.593 44.1556 46.5514 44.1202 46.518C44.0847 46.4847 44.0441 46.468 43.9983 46.468C43.9524 46.468 43.9118 46.4847 43.8765 46.518C43.841 46.5515 43.8233 46.593 43.8233 46.643C43.8233 46.6889 43.841 46.7295 43.8765 46.7649C43.9118 46.8004 43.9524 46.818 43.9983 46.818C44.0441 46.818 44.0847 46.8004 44.1202 46.7649C44.1556 46.7295 44.1733 46.6889 44.1733 46.643Z" fill="black"/>
<path d="M47.7551 48.3555C47.7551 48.4389 47.7258 48.5085 47.6675 48.5648C47.6091 48.6211 47.5404 48.6492 47.4613 48.6492H46.4613C46.3821 48.6492 46.3145 48.6211 46.2582 48.5648C46.202 48.5086 46.1738 48.4389 46.1738 48.3555V47.7805C46.1738 47.7221 46.1841 47.6732 46.2051 47.6336C46.2259 47.594 46.2488 47.5639 46.2738 47.543C46.3029 47.518 46.3384 47.4972 46.3801 47.4805C46.3342 47.4639 46.2988 47.4409 46.2738 47.4118C46.2488 47.3868 46.2259 47.3535 46.2051 47.3118C46.1842 47.2702 46.1738 47.218 46.1738 47.1555V46.643C46.1738 46.543 46.2082 46.4597 46.2769 46.393C46.3457 46.3264 46.4279 46.293 46.5238 46.293C46.6196 46.293 46.7019 46.3273 46.7707 46.3961C46.8394 46.4648 46.8737 46.5471 46.8737 46.643C46.8737 46.7389 46.8394 46.8221 46.7707 46.893C46.7019 46.9639 46.6196 46.9971 46.5238 46.993C46.4946 46.993 46.4675 46.9867 46.4425 46.9742C46.43 46.9702 46.4175 46.9617 46.405 46.9493V47.1868C46.405 47.2534 46.4216 47.3034 46.455 47.3368C46.4883 47.3702 46.5216 47.3868 46.555 47.3868H46.93V47.5743H46.555C46.5216 47.5743 46.4883 47.5962 46.455 47.6399C46.4216 47.6837 46.405 47.7368 46.405 47.7993V48.3681C46.405 48.3848 46.4071 48.3984 46.4112 48.4087C46.4153 48.4192 46.432 48.4243 46.4612 48.4243H47.4612C47.4737 48.4243 47.4872 48.4203 47.5018 48.4119C47.5164 48.4035 47.5237 48.389 47.5237 48.3681V46.3119H47.755V48.3555H47.7551ZM46.6988 46.643C46.6988 46.5929 46.681 46.5514 46.6456 46.518C46.6101 46.4846 46.5696 46.468 46.5237 46.468C46.4778 46.468 46.4372 46.4846 46.4018 46.518C46.3664 46.5514 46.3487 46.5929 46.3487 46.643C46.3487 46.6889 46.3664 46.7295 46.4018 46.7648C46.4372 46.8003 46.4778 46.818 46.5237 46.818C46.5696 46.818 46.6101 46.8003 46.6456 46.7648C46.681 46.7295 46.6988 46.6889 46.6988 46.643Z" fill="black"/>
</svg>
