<svg width="25" height="24" viewBox="0 0 25 24" fill="none" xmlns="http://www.w3.org/2000/svg">
<g clip-path="url(#clip0_5782_15444)">
<path d="M3.5 21H21.5" stroke="white" stroke-width="1.5" stroke-linecap="round" stroke-linejoin="round"/>
<path d="M4.5 21V6C4.5 5.46957 4.71071 4.96086 5.08579 4.58579C5.46086 4.21071 5.96957 4 6.5 4H18.5C19.0304 4 19.5391 4.21071 19.9142 4.58579C20.2893 4.96086 20.5 5.46957 20.5 6V21" stroke="white" stroke-width="1.5" stroke-linecap="round" stroke-linejoin="round"/>
<path d="M9.5 21V13C9.5 12.2044 9.81607 11.4413 10.3787 10.8787C10.9413 10.3161 11.7044 10 12.5 10C13.2956 10 14.0587 10.3161 14.6213 10.8787C15.1839 11.4413 15.5 12.2044 15.5 13V21" stroke="white" stroke-width="1.5" stroke-linecap="round" stroke-linejoin="round"/>
</g>
<defs>
<clipPath id="clip0_5782_15444">
<rect width="24" height="24" fill="white" transform="translate(0.5)"/>
</clipPath>
</defs>
</svg>
