<svg width="15" height="16" viewBox="0 0 15 16" fill="none" xmlns="http://www.w3.org/2000/svg">
<path d="M10.8333 0C11.0374 2.58484e-05 11.2344 0.071965 11.387 0.202172C11.5395 0.33238 11.637 0.511799 11.6608 0.7064L11.6667 0.8V1.6H12.5C13.1377 1.59997 13.7513 1.83386 14.2152 2.25383C14.6792 2.67379 14.9584 3.24809 14.9958 3.8592L15 4V13.6C15 14.2122 14.7564 14.8012 14.3189 15.2466C13.8815 15.692 13.2832 15.9601 12.6467 15.996L12.5 16H2.5C1.86232 16 1.24874 15.7661 0.784783 15.3462C0.320828 14.9262 0.0415771 14.3519 0.00416677 13.7408L3.88371e-09 13.6V4C-3.55181e-05 3.38783 0.243604 2.79879 0.68107 2.35339C1.11854 1.90799 1.71676 1.63991 2.35333 1.604L2.5 1.6H3.33333V0.8C3.33357 0.596096 3.4149 0.399974 3.56071 0.251705C3.70651 0.103436 3.90579 0.014212 4.11783 0.00226231C4.32986 -0.00968739 4.53865 0.0565397 4.70153 0.187412C4.8644 0.318284 4.96908 0.503923 4.99417 0.7064L5 0.8V1.6H10V0.8C10 0.587827 10.0878 0.384344 10.2441 0.234315C10.4004 0.0842854 10.6123 0 10.8333 0ZM13.3333 5.6H1.66667V13.3C1.66667 13.864 1.98833 14.3288 2.4025 14.3928L2.5 14.4H12.5C12.9275 14.4 13.28 13.976 13.3275 13.428L13.3333 13.3V5.6Z" fill="#2255CE"/>
</svg>
