<svg width="25" height="24" viewBox="0 0 25 24" fill="none" xmlns="http://www.w3.org/2000/svg">
<path d="M14.5 13H19.5V11H14.5V13ZM14.5 10H19.5V8H14.5V10ZM5.5 16H13.5V15.45C13.5 14.7 13.1333 14.1043 12.4 13.663C11.6667 13.2217 10.7 13.0007 9.5 13C8.3 12.9993 7.33333 13.2203 6.6 13.663C5.86667 14.1057 5.5 14.7013 5.5 15.45V16ZM9.5 12C10.05 12 10.521 11.8043 10.913 11.413C11.305 11.0217 11.5007 10.5507 11.5 10C11.4993 9.44933 11.3037 8.97867 10.913 8.588C10.5223 8.19733 10.0513 8.00133 9.5 8C8.94867 7.99867 8.478 8.19467 8.088 8.588C7.698 8.98133 7.502 9.452 7.5 10C7.498 10.548 7.694 11.019 8.088 11.413C8.482 11.807 8.95267 12.0027 9.5 12ZM4.5 20C3.95 20 3.47933 19.8043 3.088 19.413C2.69667 19.0217 2.50067 18.5507 2.5 18V6C2.5 5.45 2.696 4.97933 3.088 4.588C3.48 4.19667 3.95067 4.00067 4.5 4H20.5C21.05 4 21.521 4.196 21.913 4.588C22.305 4.98 22.5007 5.45067 22.5 6V18C22.5 18.55 22.3043 19.021 21.913 19.413C21.5217 19.805 21.0507 20.0007 20.5 20H4.5Z" fill="white"/>
</svg>
