<svg width="22" height="21" viewBox="0 0 22 21" fill="none" xmlns="http://www.w3.org/2000/svg">
<path d="M20.9734 18.6884C19.688 16.4325 17.6809 14.6747 15.2752 13.698C16.4716 12.8008 17.3553 11.5499 17.8011 10.1225C18.247 8.6951 18.2325 7.1636 17.7596 5.74492C17.2867 4.32625 16.3794 3.09233 15.1663 2.21795C13.9531 1.34356 12.4956 0.873047 11.0002 0.873047C9.50481 0.873047 8.04731 1.34356 6.83416 2.21795C5.62102 3.09233 4.71375 4.32625 4.24086 5.74492C3.76797 7.1636 3.75343 8.6951 4.19932 10.1225C4.6452 11.5499 5.52889 12.8008 6.72522 13.698C4.31953 14.6747 2.31245 16.4325 1.0271 18.6884C0.947454 18.8164 0.894371 18.9592 0.871006 19.1082C0.847641 19.2572 0.85447 19.4093 0.891088 19.5556C0.927706 19.7019 0.993366 19.8394 1.08416 19.9598C1.17496 20.0802 1.28904 20.1811 1.41963 20.2566C1.55021 20.332 1.69463 20.3805 1.8443 20.399C1.99397 20.4175 2.14584 20.4057 2.29087 20.3644C2.4359 20.323 2.57114 20.2529 2.68854 20.1583C2.80595 20.0636 2.90312 19.9463 2.97429 19.8134C4.67304 16.8771 7.67304 15.1259 11.0002 15.1259C14.3274 15.1259 17.3274 16.878 19.0262 19.8134C19.1804 20.0614 19.425 20.2397 19.7083 20.3106C19.9916 20.3815 20.2914 20.3394 20.5443 20.1933C20.7972 20.0472 20.9833 19.8085 21.0634 19.5277C21.1434 19.2468 21.1112 18.9458 20.9734 18.6884ZM6.12523 8.00086C6.12523 7.03668 6.41114 6.09414 6.94681 5.29245C7.48248 4.49077 8.24385 3.86592 9.13464 3.49695C10.0254 3.12797 11.0056 3.03143 11.9513 3.21953C12.8969 3.40763 13.7656 3.87193 14.4474 4.55371C15.1292 5.23549 15.5935 6.10414 15.7816 7.04979C15.9697 7.99545 15.8731 8.97565 15.5041 9.86644C15.1352 10.7572 14.5103 11.5186 13.7086 12.0543C12.9069 12.5899 11.9644 12.8759 11.0002 12.8759C9.70775 12.8744 8.46864 12.3603 7.55472 11.4464C6.64081 10.5324 6.12671 9.29333 6.12523 8.00086Z" fill="#2255CE"/>
</svg>
