<svg width="24" height="24" viewBox="0 0 24 24" fill="none" xmlns="http://www.w3.org/2000/svg">
<path d="M12.0121 9.15547C11.3113 9.15547 10.6551 9.42735 10.1582 9.92422C9.66366 10.4211 9.38944 11.0773 9.38944 11.7781C9.38944 12.4789 9.66366 13.1352 10.1582 13.632C10.6551 14.1266 11.3113 14.4008 12.0121 14.4008C12.7129 14.4008 13.3691 14.1266 13.866 13.632C14.3605 13.1352 14.6348 12.4789 14.6348 11.7781C14.6348 11.0773 14.3605 10.4211 13.866 9.92422C13.6233 9.67967 13.3345 9.48577 13.0162 9.3538C12.6979 9.22183 12.3566 9.15442 12.0121 9.15547ZM21.6754 14.675L20.1426 13.3648C20.2152 12.9195 20.2527 12.4648 20.2527 12.0125C20.2527 11.5602 20.2152 11.1031 20.1426 10.6602L21.6754 9.35C21.7912 9.25088 21.874 9.11885 21.913 8.97148C21.9519 8.82411 21.9451 8.66838 21.8933 8.525L21.8723 8.46406C21.4504 7.28443 20.8183 6.19099 20.0066 5.23672L19.9644 5.1875C19.8659 5.07161 19.7345 4.9883 19.5877 4.94855C19.4408 4.9088 19.2853 4.91448 19.1418 4.96484L17.2387 5.64219C16.5355 5.06563 15.7527 4.61094 14.9043 4.29453L14.5363 2.30469C14.5086 2.15479 14.4358 2.01688 14.3278 1.90929C14.2198 1.8017 14.0816 1.72952 13.9316 1.70234L13.8683 1.69063C12.6496 1.47031 11.3652 1.47031 10.1465 1.69063L10.0832 1.70234C9.93318 1.72952 9.795 1.8017 9.68699 1.90929C9.57898 2.01688 9.50627 2.15479 9.4785 2.30469L9.10819 4.30391C8.26779 4.62283 7.4849 5.07642 6.79022 5.64688L4.87303 4.96484C4.72952 4.91408 4.57395 4.9082 4.42701 4.94797C4.28006 4.98774 4.1487 5.07128 4.05038 5.1875L4.00819 5.23672C3.19794 6.19201 2.56601 7.28518 2.14257 8.46406L2.12147 8.525C2.016 8.81797 2.10272 9.1461 2.33944 9.35L3.891 10.6742C3.81835 11.1148 3.78319 11.5648 3.78319 12.0102C3.78319 12.4602 3.81835 12.9102 3.891 13.3461L2.34413 14.6703C2.22834 14.7694 2.14546 14.9015 2.10653 15.0488C2.06759 15.1962 2.07444 15.3519 2.12616 15.4953L2.14725 15.5563C2.57147 16.7352 3.19725 17.825 4.01288 18.7836L4.05507 18.8328C4.15363 18.9487 4.285 19.032 4.43185 19.0718C4.57871 19.1115 4.73416 19.1058 4.87772 19.0555L6.79491 18.3734C7.49335 18.9477 8.27147 19.4023 9.11288 19.7164L9.48319 21.7156C9.51095 21.8655 9.58367 22.0034 9.69168 22.111C9.79968 22.2186 9.93787 22.2908 10.0879 22.318L10.1512 22.3297C11.3819 22.5512 12.6423 22.5512 13.873 22.3297L13.9363 22.318C14.0863 22.2908 14.2245 22.2186 14.3325 22.111C14.4405 22.0034 14.5132 21.8655 14.541 21.7156L14.909 19.7258C15.7574 19.407 16.5402 18.9547 17.2433 18.3781L19.1465 19.0555C19.29 19.1062 19.4456 19.1121 19.5925 19.0723C19.7394 19.0326 19.8708 18.949 19.9691 18.8328L20.0113 18.7836C20.8269 17.8203 21.4527 16.7352 21.8769 15.5563L21.898 15.4953C21.9988 15.2047 21.9121 14.8789 21.6754 14.675ZM12.0121 15.8984C9.73632 15.8984 7.89178 14.0539 7.89178 11.7781C7.89178 9.50235 9.73632 7.65781 12.0121 7.65781C14.2879 7.65781 16.1324 9.50235 16.1324 11.7781C16.1324 14.0539 14.2879 15.8984 12.0121 15.8984Z" fill="white"/>
</svg>
