<svg width="50" height="41" viewBox="0 0 50 41" fill="none" xmlns="http://www.w3.org/2000/svg">
<path fill-rule="evenodd" clip-rule="evenodd" d="M43.7238 0.66189C44.2785 0.336844 44.9411 0.233444 45.5725 0.373383C46.2039 0.513321 46.7551 0.885724 47.1104 1.41246L49.5902 5.09219C49.9142 5.57312 50.0529 6.14999 49.9818 6.72081C49.9108 7.29163 49.6345 7.81963 49.202 8.21143L49.1945 8.22118L49.1594 8.25286L49.0166 8.38201L48.453 8.90595C45.3344 11.8488 42.3104 14.885 39.3853 18.0102C33.8821 23.8978 27.3468 31.6033 22.9482 39.0797C21.7208 41.1657 18.7225 41.6141 16.944 39.8132L0.699772 23.3934C0.466981 23.158 0.285212 22.8794 0.16527 22.5743C0.0453275 22.2692 -0.010339 21.9438 0.00157836 21.6173C0.0134957 21.2909 0.0927537 20.9701 0.234642 20.674C0.37653 20.378 0.578151 20.1127 0.827521 19.894L5.73711 15.5855C6.16855 15.2071 6.72178 14.9863 7.3021 14.961C7.88243 14.9356 8.45376 15.1073 8.91832 15.4466L17.207 21.4926C30.1523 9.07166 37.4966 4.30507 43.7238 0.66189Z" fill="#00AF11"/>
</svg>
