<svg width="22" height="22" viewBox="0 0 22 22" fill="none" xmlns="http://www.w3.org/2000/svg">
<path fill-rule="evenodd" clip-rule="evenodd" d="M11 1.75C10.0319 1.75 9.0999 1.89847 8.22474 2.17334C7.82956 2.29746 7.40858 2.07772 7.28446 1.68254C7.16034 1.28736 7.38008 0.866384 7.77526 0.742265C8.79419 0.42224 9.87769 0.25 11 0.25C16.9371 0.25 21.75 5.06294 21.75 11C21.75 16.9371 16.9371 21.75 11 21.75C5.06294 21.75 0.25 16.9371 0.25 11C0.25 7.99296 1.48564 5.27316 3.47497 3.32299C3.77076 3.03302 4.24561 3.03774 4.53557 3.33353C4.82554 3.62932 4.82082 4.10417 4.52503 4.39414C2.81163 6.07382 1.75 8.41225 1.75 11C1.75 16.1086 5.89137 20.25 11 20.25C16.1086 20.25 20.25 16.1086 20.25 11C20.25 5.89137 16.1086 1.75 11 1.75Z" fill="#2255CE"/>
<path fill-rule="evenodd" clip-rule="evenodd" d="M10.4697 11.5303C10.329 11.3897 10.25 11.1989 10.25 11V4C10.25 3.58579 10.5858 3.25 11 3.25C11.4142 3.25 11.75 3.58579 11.75 4V10.25H18C18.4142 10.25 18.75 10.5858 18.75 11C18.75 11.4142 18.4142 11.75 18 11.75H11C10.8011 11.75 10.6103 11.671 10.4697 11.5303Z" fill="#2255CE"/>
</svg>
