<svg width="24" height="24" viewBox="0 0 24 24" fill="none" xmlns="http://www.w3.org/2000/svg">
<g clip-path="url(#clip0_6294_11003)">
<path d="M10 14.0004C10.3259 14.333 10.7148 14.5972 11.1441 14.7776C11.5734 14.958 12.0344 15.0509 12.5 15.0509C12.9656 15.0509 13.4266 14.958 13.8559 14.7776C14.2852 14.5972 14.6741 14.333 15 14.0004L19 10.0004C19.663 9.33734 20.0355 8.43806 20.0355 7.50038C20.0355 6.5627 19.663 5.66342 19 5.00038C18.337 4.33734 17.4377 3.96484 16.5 3.96484C15.5623 3.96484 14.663 4.33734 14 5.00038L13.5 5.50038" stroke="white" stroke-width="1.5" stroke-linecap="round" stroke-linejoin="round"/>
<path d="M13.9965 9.99973C13.6706 9.66713 13.2816 9.4029 12.8523 9.22252C12.4231 9.04213 11.9621 8.94922 11.4965 8.94922C11.0308 8.94922 10.5699 9.04213 10.1406 9.22252C9.71132 9.4029 9.32235 9.66713 8.99647 9.99973L4.99647 13.9997C4.33343 14.6628 3.96094 15.562 3.96094 16.4997C3.96094 17.4374 4.33343 18.3367 4.99647 18.9997C5.65951 19.6628 6.55879 20.0353 7.49647 20.0353C8.43415 20.0353 9.33343 19.6628 9.99647 18.9997L10.4965 18.4997" stroke="white" stroke-width="2" stroke-linecap="round" stroke-linejoin="round"/>
<path d="M16 21V19" stroke="white" stroke-width="2" stroke-linecap="round" stroke-linejoin="round"/>
<path d="M19 16H21" stroke="white" stroke-width="2" stroke-linecap="round" stroke-linejoin="round"/>
<path d="M3 8H5" stroke="white" stroke-width="2" stroke-linecap="round" stroke-linejoin="round"/>
<path d="M8 3V5" stroke="white" stroke-width="2" stroke-linecap="round" stroke-linejoin="round"/>
</g>
<defs>
<clipPath id="clip0_6294_11003">
<rect width="24" height="24" fill="white"/>
</clipPath>
</defs>
</svg>
