<svg width="50" height="58" viewBox="0 0 50 58" fill="none" xmlns="http://www.w3.org/2000/svg">
<g filter="url(#filter0_i_4372_31819)">
<path d="M11.4286 14.2857C11.4286 10.4969 12.9337 6.8633 15.6128 4.1842C18.2919 1.5051 21.9255 0 25.7144 0C29.5032 0 33.1368 1.5051 35.8159 4.1842C38.495 6.8633 40.0001 10.4969 40.0001 14.2857C40.0001 18.0746 38.495 21.7082 35.8159 24.3873C33.1368 27.0664 29.5032 28.5715 25.7144 28.5715C21.9255 28.5715 18.2919 27.0664 15.6128 24.3873C12.9337 21.7082 11.4286 18.0746 11.4286 14.2857ZM8.06288 36.2029C12.6429 33.4115 18.8715 31.4286 25.7144 31.4286C26.9915 31.4286 28.2486 31.4972 29.4744 31.6286C29.9651 31.6813 30.4339 31.8602 30.835 32.1479C31.236 32.4356 31.5557 32.8223 31.7629 33.2703C31.9701 33.7183 32.0577 34.2123 32.0171 34.7043C31.9766 35.1962 31.8093 35.6692 31.5315 36.0772C29.596 38.9178 28.5643 42.2771 28.5715 45.7144C28.5715 48.343 29.1629 50.8287 30.2144 53.0487C30.4192 53.4812 30.5122 53.9582 30.4847 54.436C30.4572 54.9137 30.3101 55.3769 30.057 55.7831C29.8039 56.1892 29.4528 56.5252 29.036 56.7604C28.6192 56.9955 28.15 57.1221 27.6715 57.1287L25.7144 57.143C19.3458 57.143 13.3286 56.743 8.82002 55.5487C6.57716 54.9544 4.46573 54.103 2.86572 52.8173C1.17143 51.4573 0 49.5573 0 47.143C0 44.8944 1.02286 42.7915 2.41143 41.0315C3.82287 39.2458 5.7743 37.6029 8.06288 36.2029ZM40.0001 45.7144C40.0001 44.9566 40.3011 44.2299 40.8369 43.6941C41.3728 43.1583 42.0995 42.8572 42.8573 42.8572H45.6858C47.2801 42.8572 48.5716 44.1487 48.5716 45.743V51.8116C49.1162 52.1261 49.5419 52.6115 49.7825 53.1925C50.0232 53.7736 50.0654 54.4178 49.9026 55.0253C49.7399 55.6328 49.3812 56.1697 48.8822 56.5525C48.3833 56.9354 47.7719 57.143 47.143 57.143H45.743C44.9776 57.143 44.2436 56.839 43.7025 56.2978C43.1613 55.7566 42.8573 55.0226 42.8573 54.2573V48.5715C42.0995 48.5715 41.3728 48.2705 40.8369 47.7347C40.3011 47.1989 40.0001 46.4722 40.0001 45.7144ZM45.7144 34.2858C44.9862 34.2866 44.2857 34.5655 43.7562 35.0654C43.2267 35.5653 42.908 36.2485 42.8653 36.9755C42.8227 37.7025 43.0592 38.4183 43.5266 38.9768C43.994 39.5352 44.657 39.8941 45.3801 39.9801L45.7201 40.0001C46.4483 39.9993 47.1488 39.7204 47.6783 39.2205C48.2078 38.7206 48.5265 38.0374 48.5692 37.3104C48.6119 36.5834 48.3753 35.8676 47.9079 35.3091C47.4405 34.7507 46.7775 34.3918 46.0544 34.3058L45.7144 34.2858Z" fill="#2255CE"/>
</g>
<defs>
<filter id="filter0_i_4372_31819" x="0" y="0" width="50" height="61.1445" filterUnits="userSpaceOnUse" color-interpolation-filters="sRGB">
<feFlood flood-opacity="0" result="BackgroundImageFix"/>
<feBlend mode="normal" in="SourceGraphic" in2="BackgroundImageFix" result="shape"/>
<feColorMatrix in="SourceAlpha" type="matrix" values="0 0 0 0 0 0 0 0 0 0 0 0 0 0 0 0 0 0 127 0" result="hardAlpha"/>
<feOffset dy="4"/>
<feGaussianBlur stdDeviation="2"/>
<feComposite in2="hardAlpha" operator="arithmetic" k2="-1" k3="1"/>
<feColorMatrix type="matrix" values="0 0 0 0 0 0 0 0 0 0 0 0 0 0 0 0 0 0 0.25 0"/>
<feBlend mode="normal" in2="shape" result="effect1_innerShadow_4372_31819"/>
</filter>
</defs>
</svg>
