<svg width="54" height="58" viewBox="0 0 54 58" fill="none" xmlns="http://www.w3.org/2000/svg">
<g filter="url(#filter0_i_4372_31846)">
<path d="M11.4286 14.2857C11.4286 10.4969 12.9337 6.8633 15.6128 4.1842C18.2919 1.5051 21.9255 0 25.7144 0C29.5032 0 33.1368 1.5051 35.8159 4.1842C38.495 6.8633 40.0001 10.4969 40.0001 14.2857C40.0001 18.0746 38.495 21.7082 35.8159 24.3873C33.1368 27.0664 29.5032 28.5715 25.7144 28.5715C21.9255 28.5715 18.2919 27.0664 15.6128 24.3873C12.9337 21.7082 11.4286 18.0746 11.4286 14.2857ZM8.06288 36.2029C12.6429 33.4115 18.8715 31.4286 25.7144 31.4286C26.9915 31.4286 28.2486 31.4972 29.4744 31.6286C29.9651 31.6813 30.4339 31.8602 30.835 32.1479C31.236 32.4356 31.5557 32.8223 31.7629 33.2703C31.9701 33.7183 32.0577 34.2123 32.0171 34.7043C31.9766 35.1962 31.8093 35.6692 31.5315 36.0772C29.596 38.9178 28.5643 42.2771 28.5715 45.7144C28.5715 48.343 29.1629 50.8287 30.2144 53.0487C30.4192 53.4812 30.5122 53.9582 30.4847 54.436C30.4572 54.9137 30.3101 55.3769 30.057 55.7831C29.8039 56.1892 29.4528 56.5252 29.036 56.7604C28.6192 56.9955 28.15 57.1221 27.6715 57.1287L25.7144 57.143C19.3458 57.143 13.3286 56.743 8.82002 55.5487C6.57716 54.9544 4.46573 54.103 2.86572 52.8173C1.17143 51.4573 0 49.5573 0 47.143C0 44.8944 1.02286 42.7915 2.41143 41.0315C3.82287 39.2458 5.7743 37.603 8.06288 36.2029Z" fill="#FFB800"/>
</g>
<path d="M40 35C39.4696 35 38.9609 35.2107 38.5858 35.5858C38.2107 35.9609 38 36.4696 38 37V53C38 53.5304 38.2107 54.0391 38.5858 54.4142C38.9609 54.7893 39.4696 55 40 55H52C52.5304 55 53.0391 54.7893 53.4142 54.4142C53.7893 54.0391 54 53.5304 54 53V37C54 36.4696 53.7893 35.9609 53.4142 35.5858C53.0391 35.2107 52.5304 35 52 35H40ZM46 38C47.3261 38 48.5979 38.5268 49.5355 39.4645C50.4732 40.4021 51 41.6739 51 43C51 44.3261 50.4732 45.5979 49.5355 46.5355C48.5979 47.4732 47.3261 48 46 48C44.6739 48 43.4021 47.4732 42.4645 46.5355C41.5268 45.5979 41 44.3261 41 43C41 41.6739 41.5268 40.4021 42.4645 39.4645C43.4021 38.5268 44.6739 38 46 38ZM46 39C45.59 39.62 45.25 40.29 45.04 41H46.96C46.7448 40.2879 46.421 39.6133 46 39ZM44.7 39.22C43.78 39.53 43 40.17 42.54 41H44C44.18 40.38 44.4 39.78 44.7 39.22ZM47.29 39.22C47.59 39.78 47.82 40.38 48 41H49.46C49 40.17 48.21 39.54 47.29 39.22ZM42.13 42C42.05 42.32 42 42.65 42 43C42 43.35 42.05 43.68 42.13 44H43.82C43.78 43.67 43.75 43.34 43.75 43C43.75 42.66 43.78 42.33 43.82 42H42.13ZM44.83 42C44.78 42.32 44.75 42.66 44.75 43C44.75 43.34 44.78 43.67 44.83 44H47.17C47.21 43.67 47.25 43.34 47.25 43C47.25 42.66 47.21 42.32 47.17 42H44.83ZM48.18 42C48.22 42.33 48.25 42.66 48.25 43C48.25 43.34 48.22 43.67 48.18 44H49.87C49.95 43.68 50 43.35 50 43C50 42.65 49.95 42.32 49.87 42H48.18ZM42.54 45C43 45.83 43.78 46.46 44.7 46.78C44.4 46.22 44.18 45.63 44 45H42.54ZM45.04 45C45.25 45.72 45.59 46.38 46 47C46.42 46.38 46.75 45.72 46.96 45H45.04ZM48 45C47.82 45.63 47.59 46.22 47.29 46.78C48.21 46.46 49 45.83 49.46 45H48ZM41 50H51V52H41V50Z" fill="#FFB800"/>
<defs>
<filter id="filter0_i_4372_31846" x="0" y="0" width="40" height="61.1445" filterUnits="userSpaceOnUse" color-interpolation-filters="sRGB">
<feFlood flood-opacity="0" result="BackgroundImageFix"/>
<feBlend mode="normal" in="SourceGraphic" in2="BackgroundImageFix" result="shape"/>
<feColorMatrix in="SourceAlpha" type="matrix" values="0 0 0 0 0 0 0 0 0 0 0 0 0 0 0 0 0 0 127 0" result="hardAlpha"/>
<feOffset dy="4"/>
<feGaussianBlur stdDeviation="2"/>
<feComposite in2="hardAlpha" operator="arithmetic" k2="-1" k3="1"/>
<feColorMatrix type="matrix" values="0 0 0 0 0 0 0 0 0 0 0 0 0 0 0 0 0 0 0.25 0"/>
<feBlend mode="normal" in2="shape" result="effect1_innerShadow_4372_31846"/>
</filter>
</defs>
</svg>
