<svg width="171" height="171" viewBox="0 0 171 171" fill="none" xmlns="http://www.w3.org/2000/svg">
<circle cx="85.5" cy="85.5" r="85.5" fill="#E8EEFA"/>
<path d="M118.211 117.157C120.571 116.666 121.982 114.195 120.806 112.083C118.216 107.436 114.137 103.349 108.922 100.237C102.202 96.2268 93.9637 94.0508 85.4992 94.0508C77.0304 94.0508 68.7968 96.2225 62.0765 100.237C56.861 103.349 52.7826 107.436 50.192 112.083C49.0163 114.195 50.4271 116.666 52.7869 117.157C74.3619 121.654 96.6322 121.654 118.207 117.157H118.211Z" fill="white"/>
<path d="M85.5 89.7734C97.3051 89.7734 106.875 80.2035 106.875 68.3984C106.875 56.5934 97.3051 47.0234 85.5 47.0234C73.6949 47.0234 64.125 56.5934 64.125 68.3984C64.125 80.2035 73.6949 89.7734 85.5 89.7734Z" fill="white"/>
</svg>
