<svg width="25" height="24" viewBox="0 0 25 24" fill="none" xmlns="http://www.w3.org/2000/svg">
<g clip-path="url(#clip0_3716_3883)">
<path d="M5.6164 15.371C4.91634 15.8115 4.341 16.3092 3.93262 16.8258C3.50688 17.3655 3.25 17.9414 3.25 18.5C3.25 19.0726 3.51845 19.5367 3.97248 19.9011L3.97279 19.9014C4.41595 20.2575 5.04029 20.5213 5.77905 20.717L5.6164 15.371ZM5.6164 15.371L5.71262 15.3122C7.19971 14.405 9.24484 13.75 11.5 13.75C11.9202 13.75 12.3335 13.7726 12.736 13.8157M5.6164 15.371L12.736 13.8157M12.736 13.8157C12.779 13.8203 12.82 13.836 12.8551 13.8612C12.8902 13.8863 12.9181 13.9202 12.9363 13.9594C12.9544 13.9986 12.962 14.0418 12.9585 14.0848C12.955 14.1278 12.9404 14.1691 12.9162 14.2047M12.736 13.8157L5.7791 20.717C7.25967 21.1092 9.28581 21.25 11.5 21.25C11.7256 21.25 11.951 21.248 12.1747 21.2451C12.2166 21.2445 12.2576 21.2334 12.2941 21.2128L12.6626 21.8661L12.2941 21.2128C12.3306 21.1923 12.3613 21.1629 12.3834 21.1273L13.0199 21.524L12.3834 21.1273C12.4056 21.0918 12.4184 21.0513 12.4209 21.0095C12.4233 20.9677 12.4151 20.9259 12.3972 20.8881L12.3972 20.888C11.9829 20.0133 11.7501 19.0341 11.75 18.0008M12.9162 14.2047C12.9161 14.2048 12.9161 14.2049 12.916 14.205L13.536 14.627L12.9162 14.2047ZM12.9162 14.2047C12.1538 15.3236 11.7473 16.6468 11.75 18.0008M11.75 18.0008C11.75 18.0005 11.75 18.0003 11.75 18H12.5L11.75 18.0016C11.75 18.0013 11.75 18.0011 11.75 18.0008ZM20.42 18.8088L20.1548 19.3L20.5494 19.695L21.3834 20.53L21.3833 20.5301L21.393 20.5395C21.4168 20.5625 21.4359 20.5901 21.449 20.6206L22.1381 20.3246L21.449 20.6206C21.4621 20.6511 21.469 20.6839 21.4693 20.7171C21.4696 20.7503 21.4632 20.7832 21.4507 20.814L22.1448 21.098L21.4507 20.814C21.4381 20.8447 21.4195 20.8726 21.3961 20.8961C21.3726 20.9195 21.3447 20.9381 21.314 20.9507L21.598 21.6448L21.314 20.9507C21.2832 20.9632 21.2503 20.9696 21.2171 20.9693C21.1839 20.969 21.1511 20.9621 21.1206 20.949L20.8246 21.6381L21.1206 20.949C21.0901 20.9359 21.0625 20.9168 21.0395 20.893L21.0396 20.8929L21.0303 20.8837L20.1953 20.0487L19.8 19.6533L19.3082 19.9193C18.8893 20.1459 18.4187 20.2598 17.9425 20.2498C17.4664 20.2399 17.001 20.1064 16.5919 19.8625C16.1828 19.6187 15.844 19.2727 15.6088 18.8586C15.3737 18.4446 15.25 17.9767 15.25 17.5006C15.2503 17.0822 15.3461 16.6693 15.53 16.2935C15.714 15.9177 15.9813 15.5889 16.3115 15.332C16.6418 15.0751 17.0263 14.8969 17.4358 14.8111C17.8453 14.7253 18.269 14.734 18.6746 14.8366C19.0802 14.9393 19.4571 15.1331 19.7765 15.4034C20.0958 15.6737 20.3493 16.0133 20.5177 16.3963C20.686 16.7794 20.7647 17.1958 20.7478 17.6138C20.7308 18.0319 20.6187 18.4406 20.42 18.8088ZM7.25 7C7.25 5.87283 7.69777 4.79183 8.4948 3.9948C9.29183 3.19777 10.3728 2.75 11.5 2.75C12.6272 2.75 13.7082 3.19777 14.5052 3.9948C15.3022 4.79183 15.75 5.87283 15.75 7C15.75 8.12717 15.3022 9.20817 14.5052 10.0052C13.7082 10.8022 12.6272 11.25 11.5 11.25C10.3728 11.25 9.29183 10.8022 8.4948 10.0052C7.69777 9.20817 7.25 8.12717 7.25 7ZM18 15.25C17.4033 15.25 16.831 15.4871 16.409 15.909C15.9871 16.331 15.75 16.9033 15.75 17.5C15.75 18.0967 15.9871 18.669 16.409 19.091C16.831 19.5129 17.4033 19.75 18 19.75C18.5967 19.75 19.169 19.5129 19.591 19.091C20.0129 18.669 20.25 18.0967 20.25 17.5C20.25 16.9033 20.0129 16.331 19.591 15.909C19.169 15.4871 18.5967 15.25 18 15.25Z" fill="white" stroke="white" stroke-width="1.5"/>
</g>
<defs>
<clipPath id="clip0_3716_3883">
<rect width="24" height="24" fill="white" transform="translate(0.5)"/>
</clipPath>
</defs>
</svg>
