<svg width="58" height="58" viewBox="0 0 58 58" fill="none" xmlns="http://www.w3.org/2000/svg">
<g filter="url(#filter0_i_4372_31866)">
<path d="M11.4286 14.2857C11.4286 10.4969 12.9337 6.8633 15.6128 4.1842C18.2919 1.5051 21.9255 0 25.7144 0C29.5032 0 33.1368 1.5051 35.8159 4.1842C38.495 6.8633 40.0001 10.4969 40.0001 14.2857C40.0001 18.0746 38.495 21.7082 35.8159 24.3873C33.1368 27.0664 29.5032 28.5715 25.7144 28.5715C21.9255 28.5715 18.2919 27.0664 15.6128 24.3873C12.9337 21.7082 11.4286 18.0746 11.4286 14.2857ZM8.06288 36.2029C12.6429 33.4115 18.8715 31.4286 25.7144 31.4286C26.9915 31.4286 28.2486 31.4972 29.4744 31.6286C29.9651 31.6813 30.4339 31.8602 30.835 32.1479C31.236 32.4356 31.5557 32.8223 31.7629 33.2703C31.9701 33.7183 32.0577 34.2123 32.0171 34.7043C31.9766 35.1962 31.8093 35.6692 31.5315 36.0772C29.596 38.9178 28.5643 42.2771 28.5715 45.7144C28.5715 48.343 29.1629 50.8287 30.2144 53.0487C30.4192 53.4812 30.5122 53.9582 30.4847 54.436C30.4572 54.9137 30.3101 55.3769 30.057 55.7831C29.8039 56.1892 29.4528 56.5252 29.036 56.7604C28.6192 56.9955 28.15 57.1221 27.6715 57.1287L25.7144 57.143C19.3458 57.143 13.3286 56.743 8.82002 55.5487C6.57716 54.9544 4.46573 54.103 2.86572 52.8173C1.17143 51.4573 0 49.5573 0 47.143C0 44.8944 1.02286 42.7915 2.41143 41.0315C3.82287 39.2458 5.7743 37.603 8.06288 36.2029Z" fill="#208BC3"/>
</g>
<path d="M55 52H57V54H35V52H37V37C37 36.7348 37.1054 36.4804 37.2929 36.2929C37.4804 36.1054 37.7348 36 38 36H48C48.2652 36 48.5196 36.1054 48.7071 36.2929C48.8946 36.4804 49 36.7348 49 37V52H51V42H54C54.2652 42 54.5196 42.1054 54.7071 42.2929C54.8946 42.4804 55 42.7348 55 43V52ZM41 44V46H45V44H41ZM41 40V42H45V40H41Z" fill="#208BC3"/>
<defs>
<filter id="filter0_i_4372_31866" x="0" y="0" width="40" height="61.1445" filterUnits="userSpaceOnUse" color-interpolation-filters="sRGB">
<feFlood flood-opacity="0" result="BackgroundImageFix"/>
<feBlend mode="normal" in="SourceGraphic" in2="BackgroundImageFix" result="shape"/>
<feColorMatrix in="SourceAlpha" type="matrix" values="0 0 0 0 0 0 0 0 0 0 0 0 0 0 0 0 0 0 127 0" result="hardAlpha"/>
<feOffset dy="4"/>
<feGaussianBlur stdDeviation="2"/>
<feComposite in2="hardAlpha" operator="arithmetic" k2="-1" k3="1"/>
<feColorMatrix type="matrix" values="0 0 0 0 0 0 0 0 0 0 0 0 0 0 0 0 0 0 0.25 0"/>
<feBlend mode="normal" in2="shape" result="effect1_innerShadow_4372_31866"/>
</filter>
</defs>
</svg>
