<svg width="8" height="40" viewBox="0 0 8 40" fill="none" xmlns="http://www.w3.org/2000/svg">
<g filter="url(#filter0_i_7811_21854)">
<path d="M4.00001 40C5.13335 40 6.08401 39.616 6.85201 38.848C7.62001 38.08 8.00268 37.1307 8.00001 36C8.00001 34.8667 7.61601 33.916 6.84801 33.148C6.08001 32.38 5.13068 31.9973 4.00001 32C2.86668 32 1.91601 32.384 1.14801 33.152C0.380013 33.92 -0.00265283 34.8693 1.38409e-05 36C1.38409e-05 37.1333 0.384011 38.084 1.15201 38.852C1.92001 39.62 2.86935 40.0027 4.00001 40ZM4.00001 24C5.13335 24 6.08401 23.616 6.85201 22.848C7.62001 22.08 8.00268 21.1307 8.00001 20V4.00001C8.00001 2.86668 7.61601 1.91601 6.84801 1.14801C6.08001 0.380015 5.13068 -0.00265283 4.00001 1.38408e-05C2.86668 1.38408e-05 1.91601 0.384013 1.14801 1.15201C0.380013 1.92001 -0.00265283 2.86935 1.38409e-05 4.00001V20C1.38409e-05 21.1333 0.384011 22.084 1.15201 22.852C1.92001 23.62 2.86935 24.0027 4.00001 24Z" fill="#2255CE"/>
</g>
<defs>
<filter id="filter0_i_7811_21854" x="0" y="0" width="8" height="44" filterUnits="userSpaceOnUse" color-interpolation-filters="sRGB">
<feFlood flood-opacity="0" result="BackgroundImageFix"/>
<feBlend mode="normal" in="SourceGraphic" in2="BackgroundImageFix" result="shape"/>
<feColorMatrix in="SourceAlpha" type="matrix" values="0 0 0 0 0 0 0 0 0 0 0 0 0 0 0 0 0 0 127 0" result="hardAlpha"/>
<feOffset dy="4"/>
<feGaussianBlur stdDeviation="2"/>
<feComposite in2="hardAlpha" operator="arithmetic" k2="-1" k3="1"/>
<feColorMatrix type="matrix" values="0 0 0 0 0 0 0 0 0 0 0 0 0 0 0 0 0 0 0.25 0"/>
<feBlend mode="normal" in2="shape" result="effect1_innerShadow_7811_21854"/>
</filter>
</defs>
</svg>
